<?xml version="1.0" encoding="utf-8"?>
<!-- Generator: Adobe Illustrator 22.1.0, SVG Export Plug-In . SVG Version: 6.00 Build 0)  -->
<svg version="1.1" id="Capa_1" xmlns="http://www.w3.org/2000/svg" xmlns:xlink="http://www.w3.org/1999/xlink" x="0px" y="0px"
	 viewBox="0 0 14.1 18.5" style="enable-background:new 0 0 14.1 18.5;" xml:space="preserve">
<style type="text/css">
	.st0{fill:#FFFFFF;}
</style>
<g>
	<path class="st0" d="M2.8,1.1c0.7-0.6,1.7-0.6,2.4,0c0.7,0.7,0.7,1.7,0,2.4c-0.6,0.6-1.7,0.6-2.4,0C2.1,2.8,2.1,1.8,2.8,1.1
		L2.8,1.1z"/>
	<path class="st0" d="M6.4,4.7C7,4,8.1,4,8.7,4.7c0.7,0.6,0.7,1.7,0,2.4C8.1,7.7,7,7.7,6.4,7.1C5.7,6.4,5.7,5.4,6.4,4.7L6.4,4.7z"/>
	<path class="st0" d="M9.9,8.3c0.7-0.7,1.7-0.7,2.4,0c0.6,0.7,0.6,1.7,0,2.4c-0.7,0.7-1.7,0.7-2.4,0C9.3,10,9.3,8.9,9.9,8.3L9.9,8.3
		z"/>
	<path class="st0" d="M2.8,8.3c0.7-0.7,1.7-0.7,2.4,0c0.7,0.7,0.7,1.7,0,2.4c-0.6,0.7-1.7,0.7-2.4,0C2.1,10,2.1,8.9,2.8,8.3L2.8,8.3
		z"/>
	<path class="st0" d="M6.4,11.8c0.7-0.7,1.7-0.7,2.4,0c0.7,0.7,0.7,1.7,0,2.4c-0.7,0.7-1.7,0.7-2.4,0C5.7,13.5,5.7,12.5,6.4,11.8
		L6.4,11.8z"/>
	<path class="st0" d="M2.8,15.4c0.7-0.7,1.7-0.7,2.4,0c0.7,0.7,0.7,1.7,0,2.4c-0.6,0.7-1.7,0.7-2.4,0C2.1,17.1,2.1,16.1,2.8,15.4
		L2.8,15.4z"/>
</g>
</svg>
