<?xml version="1.0" encoding="utf-8"?>
<!-- Generator: Adobe Illustrator 22.1.0, SVG Export Plug-In . SVG Version: 6.00 Build 0)  -->
<svg version="1.1" id="Capa_1" xmlns="http://www.w3.org/2000/svg" xmlns:xlink="http://www.w3.org/1999/xlink" x="0px" y="0px"
	 viewBox="0 0 145 109" style="enable-background:new 0 0 145 109;" xml:space="preserve">
<style type="text/css">
	.st0{fill:#FFFFFF;}
	.st1{fill:none;stroke:#FFFFFF;stroke-width:5.6693;stroke-miterlimit:10;}
</style>
<g>
	<path class="st0" d="M76.6,58.7c0,0.8-0.7,1.5-1.5,1.5h-5.2c-0.8,0-1.5-0.7-1.5-1.5v-5H50.9v13.6c0,2.4,2,4.4,4.4,4.4h34.5
		c2.4,0,4.4-2,4.4-4.4V53.7H76.6V58.7z"/>
	<path class="st0" d="M68.4,50.9c0-0.8,0.7-1.5,1.5-1.5h5.2c0.8,0,1.5,0.7,1.5,1.5v1h17.5v-4.3c0-2.4-2-4.4-4.4-4.4H55.2
		c-2.4,0-4.4,2-4.4,4.4v4.3h17.5V50.9z"/>
	<path class="st0" d="M65.6,45.2c0.7,0,1.2-0.5,1.2-1.2v-2.8c0-0.8,0.7-1.5,1.5-1.5h8.4c0.8,0,1.5,0.7,1.5,1.5v2.8
		c0,0.7,0.5,1.2,1.2,1.2c0.7,0,1.2-0.5,1.2-1.2v-2.8c0-2.1-1.7-3.9-3.9-3.9h-8.4c-2.1,0-3.9,1.8-3.9,3.9v2.8
		C64.4,44.7,64.9,45.2,65.6,45.2z"/>
	<path class="st0" d="M74.9,51.2c-0.5,0-4.3,0-4.7,0c0,0.5,0,6.8,0,7.3c0.5,0,4.3,0,4.7,0C74.9,58,74.9,51.6,74.9,51.2z"/>
</g>
<circle class="st1" cx="72.5" cy="54.5" r="35.5"/>
</svg>
