<?xml version="1.0" encoding="utf-8"?>
<!-- Generator: Adobe Illustrator 22.1.0, SVG Export Plug-In . SVG Version: 6.00 Build 0)  -->
<svg version="1.1" id="Capa_1" xmlns="http://www.w3.org/2000/svg" xmlns:xlink="http://www.w3.org/1999/xlink" x="0px" y="0px"
	 viewBox="0 0 145 109" style="enable-background:new 0 0 145 109;" xml:space="preserve">
<style type="text/css">
	.st0{fill:none;stroke:#FFFFFF;stroke-width:5.6693;stroke-miterlimit:10;}
	.st1{fill:#FFFFFF;stroke:#FFFFFF;stroke-width:0.7087;stroke-miterlimit:10;}
</style>
<circle class="st0" cx="72.5" cy="54.5" r="35.5"/>
<path class="st1" d="M89.3,70.6c1.7,0,3.1-1.4,3.1-3.1V41.5c0-1.7-1.4-3.1-3.1-3.1H55.7c-1.7,0-3.1,1.4-3.1,3.1v26.1
	c0,1.7,1.4,3.1,3.1,3.1H89.3z M55.7,40.6h33.6c0.5,0,0.9,0.4,0.9,0.9V46H54.8v-4.5C54.8,40.9,55.1,40.6,55.7,40.6z M54.8,67.6V48.1
	h35.5v19.5c0,0.5-0.4,0.9-0.9,0.9H55.7C55.1,68.5,54.8,68.1,54.8,67.6z M60.5,43.2c0-0.7,0.6-1.3,1.3-1.3c0.7,0,1.3,0.6,1.3,1.3
	c0,0.7-0.6,1.3-1.3,1.3C61.1,44.5,60.5,43.9,60.5,43.2z M64.7,43.2c0-0.7,0.6-1.3,1.3-1.3c0.7,0,1.3,0.6,1.3,1.3
	c0,0.7-0.6,1.3-1.3,1.3C65.3,44.5,64.7,43.9,64.7,43.2z M56.2,43.2c0-0.7,0.6-1.3,1.3-1.3c0.7,0,1.3,0.6,1.3,1.3
	c0,0.7-0.6,1.3-1.3,1.3C56.8,44.5,56.2,43.9,56.2,43.2z M77.8,62.6l5-4.2l-5-4.2c-0.5-0.4-0.5-1.1-0.1-1.5c0.4-0.5,1.1-0.5,1.5-0.1
	l5.9,5c0.3,0.2,0.4,0.5,0.4,0.8c0,0.3-0.1,0.6-0.4,0.8l-5.9,5c-0.2,0.2-0.4,0.3-0.7,0.3c-0.3,0-0.6-0.1-0.8-0.4
	C77.3,63.6,77.3,63,77.8,62.6z M59.9,59.2c-0.3-0.2-0.4-0.5-0.4-0.8c0-0.3,0.1-0.6,0.4-0.8l5.9-5c0.5-0.4,1.1-0.3,1.5,0.1
	c0.4,0.5,0.3,1.1-0.1,1.5l-5,4.2l5,4.2c0.5,0.4,0.5,1.1,0.1,1.5c-0.2,0.3-0.5,0.4-0.8,0.4c-0.3,0-0.5-0.1-0.7-0.3L59.9,59.2z
	 M69,64.2l5-12.6c0.2-0.6,0.9-0.8,1.4-0.6c0.6,0.2,0.8,0.9,0.6,1.4L71,65.1c-0.2,0.4-0.6,0.7-1,0.7c-0.1,0-0.3,0-0.4-0.1
	C69,65.4,68.8,64.8,69,64.2z"/>
</svg>
