<?xml version="1.0" encoding="utf-8"?>
<!-- Generator: Adobe Illustrator 22.1.0, SVG Export Plug-In . SVG Version: 6.00 Build 0)  -->
<svg version="1.1" id="Capa_1" xmlns="http://www.w3.org/2000/svg" xmlns:xlink="http://www.w3.org/1999/xlink" x="0px" y="0px"
	 viewBox="0 0 145 109" style="enable-background:new 0 0 145 109;" xml:space="preserve">
<style type="text/css">
	.st0{fill:none;stroke:#FFFFFF;stroke-width:5.6693;stroke-miterlimit:10;}
	.st1{fill:#FFFFFF;stroke:#FFFFFF;stroke-width:0.7087;stroke-miterlimit:10;}
</style>
<circle class="st0" cx="72.5" cy="54.5" r="35.5"/>
<g>
	<g>
		<path class="st1" d="M94,41.2h-1.6v-1.7c0-0.4-0.3-0.7-0.6-0.7c-1.9-0.4-4.1-0.6-6.1-0.6c-4.9,0-9.5,1.2-13.2,3.4
			c-3.7-2.3-8.3-3.4-13.2-3.4c-2,0-4.2,0.2-6.1,0.6c-0.4,0-0.7,0.3-0.7,0.7v1.7H51c-0.4,0-0.7,0.3-0.7,0.7V68c0,0.4,0.3,0.7,0.7,0.7
			h16.1v0.2c0,1.1,0.9,2,2,2h6.6c1.1,0,2.1-0.9,2.1-2.1v-0.2H94c0.4,0,0.7-0.3,0.7-0.7V41.8C94.7,41.5,94.4,41.2,94,41.2z
			 M53.9,63.7c1.7-0.3,3.6-0.5,5.4-0.5c4.8,0,9.2,1.2,12.7,3.3c0.1,0,0.2,0.1,0.3,0.1h0.2c0.1,0,0.2,0,0.3-0.1
			c3.5-2.2,7.9-3.3,12.7-3.3c1.7,0,3.6,0.2,5.4,0.5v0.9c-1.7-0.3-3.6-0.5-5.4-0.5c-4.9,0-9.5,1.2-13.2,3.4
			c-3.7-2.3-8.3-3.4-13.2-3.4c-1.7,0-3.6,0.1-5.4,0.5L53.9,63.7L53.9,63.7z M91,40.1v22.2c-1.7-0.3-3.6-0.5-5.4-0.5
			c-4.6,0-8.9,1.1-12.5,3.1V42.8c3.5-2.1,7.8-3.2,12.5-3.2C87.4,39.5,89.3,39.7,91,40.1z M59.3,39.5c4.7,0,9,1.1,12.6,3.3v22.1
			c-3.6-2-7.9-3.1-12.6-3.1c-1.8,0-3.6,0.2-5.4,0.5V40.1C55.6,39.7,57.5,39.5,59.3,39.5z M93.3,67.3H77.2c-0.2,0-0.3,0-0.5,0.2
			c-0.1,0.1-0.2,0.3-0.2,0.5v0.9c0,0.3-0.3,0.7-0.7,0.7h-6.6c-0.3,0-0.7-0.3-0.7-0.7V68c0-0.4-0.3-0.7-0.7-0.7H51.7V42.6h0.8v22.9
			c0,0.2,0.1,0.4,0.3,0.5c0.1,0.1,0.4,0.1,0.6,0.1c1.8-0.4,3.8-0.6,5.8-0.6c4.8,0,9.2,1.2,12.7,3.3c0.1,0,0.2,0.1,0.3,0.1h0.2
			c0.1,0,0.2,0,0.3-0.1c3.5-2.2,7.9-3.3,12.7-3.3c1.9,0,4,0.2,5.8,0.6c0,0,0,0,0.1,0c0.2,0,0.5,0,0.6-0.2c0,0,0.1-0.1,0.1-0.2l0,0
			l0,0c0,0,0.1-0.1,0.1-0.2l0,0V42.6h0.9L93.3,67.3L93.3,67.3z"/>
	</g>
</g>
</svg>
