<?xml version="1.0" encoding="utf-8"?>
<!-- Generator: Adobe Illustrator 22.1.0, SVG Export Plug-In . SVG Version: 6.00 Build 0)  -->
<svg version="1.1" id="contraportada" xmlns="http://www.w3.org/2000/svg" xmlns:xlink="http://www.w3.org/1999/xlink" x="0px"
	 y="0px" viewBox="0 0 414 211" style="enable-background:new 0 0 414 211;" xml:space="preserve">
<style type="text/css">
	.st0{fill:#262626;}
	.st1{fill:#262626;stroke:#FFFFFF;stroke-miterlimit:10;}
</style>
<g id="Vector_Smart_Object_xA0_Image_1_">
	<g>
		<g>
			<path class="st0" d="M37.5,11.7v56.9h0.3c2.3-3.4,5.5-5.9,9.5-7.5s8.1-2.4,12.4-2.4c3.5,0,6.9,0.7,10.3,2.1
				c3.4,1.4,6.5,3.5,9.2,6.3s4.9,6.5,6.6,10.9s2.5,9.7,2.5,15.7c0,6.1-0.8,11.3-2.5,15.7c-1.7,4.4-3.9,8-6.6,10.9
				c-2.7,2.8-5.8,4.9-9.2,6.3c-3.4,1.4-6.8,2.1-10.3,2.1c-5.1,0-9.7-0.8-13.7-2.3s-7.1-4.2-9.1-7.8h-0.3v8.5H18.5V11.7H37.5z
				 M68.3,85.7c-0.6-2.6-1.6-4.8-3-6.8c-1.3-2-3-3.5-5-4.7c-2-1.1-4.4-1.7-7.3-1.7c-2.8,0-5.2,0.6-7.2,1.7c-2.1,1.2-3.8,2.7-5.1,4.7
				s-2.3,4.2-2.9,6.8c-0.6,2.6-0.9,5.3-0.9,8.1c0,2.7,0.3,5.4,0.9,8c0.6,2.6,1.6,4.8,2.9,6.8c1.3,2,3,3.5,5.1,4.7s4.5,1.7,7.2,1.7
				c2.9,0,5.3-0.6,7.3-1.7s3.7-2.7,5-4.7s2.3-4.2,3-6.8c0.6-2.6,0.9-5.2,0.9-8C69.3,90.9,69,88.2,68.3,85.7z"/>
			<path class="st0" d="M59.6,131.5c-5.4,0-10.4-0.8-14.7-2.5c-2-0.8-3.8-1.8-5.4-3v3.8h-24V8.7h24.9v52.8c1.7-1.3,3.6-2.4,5.7-3.2
				C54,55.2,62.8,54.7,71,58c3.8,1.5,7.2,3.9,10.2,7s5.4,7.1,7.3,11.8c1.8,4.7,2.7,10.4,2.7,16.8s-0.9,12.1-2.7,16.8
				c-1.8,4.8-4.3,8.7-7.3,11.8c-3,3.1-6.4,5.5-10.2,7C67.3,130.8,63.5,131.5,59.6,131.5z M33.6,115.5h4.7l1.1,1.5
				c1.7,3.1,4.2,5.2,7.6,6.5c6.1,2.3,14.2,3.4,21.8,0.3c3-1.2,5.7-3.1,8.2-5.6c2.4-2.5,4.5-5.9,6-9.9c1.6-4.1,2.3-9,2.3-14.7
				C85.4,88,84.6,83,83,79c-1.5-4-3.6-7.3-6-9.9c-2.4-2.5-5.2-4.4-8.2-5.6c-6.9-2.8-14.1-2.3-20.5,0.3c-3.5,1.4-6.1,3.5-8.1,6.4
				l-0.9,1.3h-4.5l-0.3-2.9v-54H21.4V124h12.2V115.5z M53.1,117.9c-3.3,0-6.2-0.7-8.7-2.1c-2.4-1.4-4.5-3.2-6.1-5.6
				c-1.5-2.3-2.7-4.9-3.4-7.8c-0.7-2.8-1-5.7-1-8.7s0.3-6,1-8.8c0.7-2.9,1.8-5.5,3.4-7.8c1.6-2.3,3.6-4.2,6.1-5.6
				c5.1-2.8,12.6-2.8,17.4,0c2.4,1.4,4.4,3.3,6,5.6c1.5,2.2,2.7,4.9,3.4,7.8c0.7,2.8,1,5.7,1,8.8c0,3-0.3,5.9-1,8.7
				c-0.7,2.9-1.8,5.5-3.4,7.8s-3.6,4.2-6,5.6C59.4,117.2,56.4,117.9,53.1,117.9z M53.1,75.4c-2.2,0-4.2,0.5-5.8,1.4
				c-1.7,0.9-3,2.2-4.1,3.8c-1.1,1.7-2,3.6-2.5,5.8c-0.6,2.3-0.9,4.8-0.9,7.4c0,2.5,0.3,4.9,0.9,7.3c0.5,2.2,1.4,4.2,2.5,5.8
				c1.1,1.6,2.4,2.8,4.1,3.8c3.3,1.8,8.6,1.8,11.6,0c1.6-0.9,3-2.2,4.1-3.8c1.1-1.7,2-3.6,2.5-5.8c0.6-2.3,0.9-4.8,0.9-7.3
				c0-2.6-0.3-5.1-0.9-7.4c-0.5-2.2-1.4-4.2-2.5-5.9c-1.1-1.6-2.4-2.9-4.1-3.8C57.3,75.8,55.4,75.4,53.1,75.4z"/>
		</g>
		<g>
			<path class="st0" d="M120.8,111c2.9,2.7,7,4,12.3,4c3.8,0,7.1-0.9,9.9-2.8c2.8-1.8,4.5-3.8,5.1-5.8h16.8
				c-2.7,8-6.8,13.7-12.3,17.1s-12.2,5.1-20.1,5.1c-5.5,0-10.4-0.8-14.7-2.5c-4.4-1.7-8.1-4-11.1-7.1s-5.4-6.8-7-11
				c-1.7-4.3-2.5-9-2.5-14.1c0-5,0.9-9.6,2.5-13.9c1.7-4.3,4.1-8,7.2-11.1s6.9-5.6,11.2-7.4c4.3-1.8,9.1-2.7,14.4-2.7
				c5.9,0,11,1.1,15.4,3.3c4.4,2.2,8,5.1,10.8,8.8c2.8,3.7,4.9,7.9,6.1,12.6c1.2,4.7,1.7,9.6,1.3,14.8h-50
				C116.3,104,117.9,108.3,120.8,111z M142.3,76c-2.3-2.4-5.7-3.6-10.4-3.6c-3,0-5.6,0.5-7.6,1.5s-3.6,2.2-4.8,3.7
				c-1.2,1.5-2.1,3-2.5,4.6c-0.5,1.6-0.8,3.1-0.9,4.4h31C146.1,81.9,144.6,78.4,142.3,76z"/>
			<path class="st0" d="M132.4,131.5c-5.8,0-11.1-0.9-15.8-2.7c-4.8-1.8-8.9-4.4-12.2-7.8c-3.3-3.4-5.9-7.4-7.7-12.1
				c-1.8-4.6-2.7-9.7-2.7-15.2c0-5.3,0.9-10.3,2.8-15c1.8-4.6,4.5-8.7,7.9-12.1s7.5-6.1,12.1-8c4.7-1.9,9.9-2.9,15.5-2.9
				c6.3,0,12,1.2,16.7,3.6c4.8,2.4,8.7,5.6,11.8,9.7c3,4,5.3,8.5,6.6,13.6c1.3,5,1.8,10.3,1.4,15.7l-0.2,2.7h-49.5
				c0.5,3.5,1.7,6.1,3.5,7.8c2.3,2.1,5.8,3.2,10.3,3.2c3.3,0,6-0.7,8.3-2.3c2.1-1.4,3.5-2.9,3.9-4.2l0.6-2.1h23l-1.3,3.9
				c-2.9,8.6-7.5,14.9-13.6,18.6C148.1,129.6,140.8,131.5,132.4,131.5z M132.4,61.6c-4.9,0-9.3,0.8-13.3,2.5
				c-4,1.6-7.4,3.9-10.3,6.8c-2.8,2.8-5,6.2-6.6,10.1s-2.3,8.2-2.3,12.8c0,4.8,0.8,9.2,2.3,13.1s3.6,7.3,6.4,10
				c2.7,2.8,6.1,4.9,10.1,6.4s8.6,2.3,13.7,2.3c7.3,0,13.5-1.6,18.6-4.7c4-2.5,7.2-6.4,9.6-11.6H150c-1.1,1.9-2.9,3.7-5.4,5.3
				c-3.3,2.2-7.1,3.2-11.6,3.2c-6.1,0-10.9-1.6-14.3-4.8c-3.4-3.2-5.3-8.2-5.6-14.9L113,95h50.3c0-3.8-0.4-7.6-1.4-11.1
				c-1.1-4.3-3-8.2-5.6-11.6c-2.5-3.3-5.8-6-9.8-8C142.6,62.6,137.8,61.6,132.4,61.6z M150.6,89.5h-37.7l0.2-3.1
				c0.1-1.5,0.4-3.2,1-5c0.6-2,1.6-3.9,3.1-5.7c1.5-1.8,3.4-3.3,5.8-4.4c2.4-1.2,5.4-1.8,8.9-1.8c5.5,0,9.7,1.5,12.5,4.5
				c2.7,2.8,4.5,6.9,5.5,12L150.6,89.5z M119.6,83.6h23.7c-0.8-2.3-1.8-4.2-3.1-5.6c-1.7-1.8-4.5-2.7-8.3-2.7
				c-2.6,0-4.7,0.4-6.3,1.2c-1.6,0.8-2.9,1.8-3.9,2.9s-1.6,2.4-2,3.6C119.7,83.2,119.6,83.4,119.6,83.6z"/>
		</g>
		<g>
			<path class="st0" d="M185.9,60.6v12.6h0.3c2-4.6,5.2-8.2,9.6-10.7c4.4-2.5,9.5-3.8,15.1-3.8c5.3,0,9.9,0.9,13.7,2.8
				c3.9,1.9,7.1,4.4,9.7,7.6c2.6,3.2,4.5,6.9,5.8,11.2c1.2,4.2,1.9,8.7,1.9,13.4c0,4.7-0.6,9.2-1.9,13.4c-1.3,4.2-3.2,8-5.8,11.2
				s-5.8,5.7-9.7,7.6c-3.9,1.8-8.5,2.8-13.7,2.8c-2.5,0-5-0.3-7.5-0.9s-4.8-1.5-7-2.7c-2.1-1.2-4-2.7-5.7-4.5s-2.9-3.9-3.8-6.3h-0.3
				v84h-8.4V60.6H185.9z M232.2,83.5c-0.9-3.4-2.2-6.4-4-9.1s-4.2-4.8-7-6.5c-2.9-1.7-6.3-2.5-10.3-2.5c-4.7,0-8.5,0.8-11.7,2.3
				c-3.1,1.5-5.6,3.6-7.5,6.2s-3.2,5.6-4,9s-1.1,7-1.1,10.8c0,3.4,0.4,6.8,1.3,10.2c0.8,3.4,2.2,6.4,4.2,9.1
				c1.9,2.7,4.4,4.8,7.5,6.5s6.9,2.5,11.3,2.5c4,0,7.5-0.8,10.3-2.5c2.9-1.7,5.2-3.8,7-6.5s3.2-5.7,4-9.1s1.3-6.8,1.3-10.2
				C233.5,90.3,233.1,86.9,232.2,83.5z"/>
			<path class="st0" d="M189.5,201.3h-14.3V57.7h13.6v6.4c1.6-1.6,3.4-3,5.5-4.2c4.8-2.8,10.4-4.2,16.5-4.2c5.7,0,10.7,1.1,15,3.1
				c4.3,2.1,7.9,4.9,10.7,8.4s4.9,7.6,6.3,12.2c1.3,4.5,2,9.3,2,14.2c0,4.9-0.7,9.7-2,14.2c-1.4,4.6-3.5,8.7-6.3,12.2
				c-2.9,3.5-6.5,6.4-10.7,8.4c-6.3,3-14.7,4.1-23.2,2.1c-2.8-0.7-5.4-1.7-7.7-3c-2-1.1-3.8-2.5-5.4-4.1L189.5,201.3L189.5,201.3z
				 M181,195.4h2.6v-84h3.9c-1.1-2.1-1.9-4.3-2.5-6.7c-0.9-3.6-1.4-7.3-1.4-10.9c0-4,0.4-7.8,1.2-11.4c0.5-2.2,1.2-4.3,2.1-6.2h-3.7
				l-0.3-2.9v-9.7H181V195.4z M191.5,117c0.4,0.6,0.8,1.1,1.3,1.6c1.4,1.6,3.1,2.9,5,3.9c1.9,1.1,4,1.9,6.2,2.4
				c7.2,1.7,14.2,0.8,19.3-1.7c3.5-1.6,6.4-3.9,8.7-6.8s4.1-6.3,5.2-10.2c1.2-4,1.8-8.2,1.8-12.6s-0.6-8.6-1.8-12.6
				c-1.1-3.9-2.9-7.3-5.2-10.2c-2.3-2.9-5.2-5.2-8.7-6.9c-3.5-1.7-7.7-2.5-12.5-2.5c-5.1,0-9.7,1.1-13.6,3.4c-2,1.2-3.7,2.5-5.2,4.2
				c1.7-1.6,3.6-2.9,5.8-4c3.5-1.7,7.9-2.6,13-2.6c4.5,0,8.5,1,11.8,2.9c3.2,1.9,5.9,4.4,8,7.3c2,2.9,3.5,6.3,4.4,10
				c0.9,3.6,1.4,7.3,1.4,10.9s-0.5,7.3-1.4,10.9c-0.9,3.7-2.4,7.1-4.4,10c-2.1,3-4.7,5.5-8,7.3c-3.3,1.9-7.3,2.9-11.8,2.9
				c-4.9,0-9.2-1-12.7-2.9C195.6,120.7,193.4,119,191.5,117z M210.8,68.4c-4.2,0-7.7,0.7-10.4,2s-4.8,3.1-6.4,5.3
				c-1.6,2.2-2.8,4.9-3.5,7.9c-0.7,3.2-1.1,6.6-1.1,10.2c0,3.2,0.4,6.4,1.2,9.5c0.8,3,2,5.7,3.7,8.1c1.6,2.3,3.8,4.2,6.5,5.6
				c2.6,1.4,6,2.2,9.9,2.2c3.5,0,6.5-0.7,8.8-2.1c2.5-1.5,4.5-3.3,6.1-5.6c1.6-2.4,2.8-5.1,3.6-8.1c0.8-3.1,1.2-6.3,1.2-9.5
				s-0.4-6.4-1.2-9.5c-0.8-3-2-5.8-3.6-8.1c-1.6-2.3-3.6-4.2-6.1-5.6C217.3,69.1,214.3,68.4,210.8,68.4z"/>
		</g>
		<g>
			<path class="st0" d="M263.7,11.7v115.2h-8.5V11.7H263.7z"/>
			<path class="st0" d="M266.6,129.8h-14.3V8.8h14.3V129.8z M258.1,124h2.6V14.6h-2.6V124z"/>
		</g>
		<g>
			<path class="st0" d="M281.6,70.9c1.4-2.8,3.4-5.1,5.8-6.9c2.5-1.8,5.3-3.1,8.7-4c3.3-0.8,7-1.3,11-1.3c3,0,6.1,0.3,9.1,0.8
				c3,0.6,5.8,1.6,8.2,3.1c2.4,1.5,4.4,3.7,5.9,6.5s2.3,6.4,2.3,10.9v35.2c0,3.2,1.7,4.9,5,4.9c1,0,1.9-0.2,2.7-0.5v6.8
				c-1,0.2-1.9,0.3-2.6,0.4c-0.8,0.1-1.7,0.1-2.9,0.1c-2.1,0-3.9-0.3-5.2-0.8c-1.3-0.6-2.3-1.3-3-2.4c-0.7-1-1.2-2.2-1.4-3.7
				c-0.2-1.4-0.3-3-0.3-4.7h-0.3c-1.5,2.1-3.1,4-4.6,5.7c-1.6,1.7-3.3,3.1-5.2,4.2c-1.9,1.1-4.1,2-6.6,2.6s-5.4,0.9-8.8,0.9
				c-3.2,0-6.2-0.4-9-1.1c-2.8-0.7-5.3-1.9-7.4-3.5s-3.8-3.6-5-6s-1.8-5.3-1.8-8.7c0-4.6,1.1-8.2,3.2-10.9c2.1-2.6,5-4.6,8.5-6
				s7.5-2.3,11.9-2.9s8.9-1.1,13.5-1.6c1.8-0.2,3.4-0.4,4.7-0.6c1.3-0.3,2.5-0.7,3.4-1.3c0.9-0.6,1.6-1.5,2.1-2.6s0.7-2.6,0.7-4.4
				c0-2.7-0.5-5-1.4-6.7c-0.9-1.8-2.2-3.1-3.9-4.2c-1.7-1-3.6-1.7-5.8-2.1c-2.2-0.4-4.5-0.6-7-0.6c-5.4,0-9.7,1.2-13.1,3.7
				c-3.4,2.4-5.2,6.4-5.4,11.8h-8.4C279.4,77.1,280.2,73.7,281.6,70.9z M323.9,90.7c-0.5,0.9-1.6,1.6-3.1,2.1
				c-1.5,0.4-2.9,0.7-4,0.9c-3.6,0.6-7.3,1.1-11.1,1.6c-3.8,0.5-7.3,1.2-10.4,2.1s-5.7,2.3-7.7,4c-2,1.8-3,4.3-3,7.5
				c0,2.1,0.4,3.9,1.3,5.5s2,3,3.4,4.1c1.4,1.2,3.1,2,5,2.6s3.8,0.9,5.8,0.9c3.2,0,6.3-0.5,9.2-1.4c3-0.9,5.5-2.3,7.7-4.1
				c2.2-1.8,3.9-4,5.2-6.6c1.3-2.6,1.9-5.5,1.9-8.7V90.7H323.9z"/>
			<path class="st0" d="M299.3,131.6c-3.4,0-6.7-0.4-9.8-1.2c-3.2-0.8-6-2.1-8.4-4c-2.5-1.9-4.4-4.2-5.8-7.1
				c-1.4-2.8-2.1-6.2-2.1-10c0-5.3,1.3-9.6,3.9-12.7c2.5-3,5.7-5.3,9.7-6.8c3.7-1.4,8-2.5,12.6-3.1c4.4-0.6,8.9-1.1,13.5-1.6
				c1.7-0.2,3.2-0.4,4.5-0.6c0.9-0.2,1.7-0.5,2.2-0.9c0.5-0.3,0.8-0.8,1.1-1.5c0.2-0.5,0.5-1.5,0.5-3.2c0-2.2-0.4-4-1.1-5.4
				c-0.7-1.3-1.6-2.3-2.9-3.1c-1.3-0.8-2.9-1.4-4.7-1.7c-2-0.3-4.2-0.5-6.5-0.5c-4.7,0-8.6,1.1-11.4,3.1c-2.6,1.9-4,5-4.2,9.5
				l-0.1,2.8H276l0.2-3.1c0.3-4.2,1.3-8,2.9-11.1c1.6-3.2,3.9-5.9,6.7-8c2.7-2,6-3.5,9.6-4.5c6.2-1.6,14-1.8,21.4-0.5
				c3.4,0.6,6.5,1.8,9.2,3.6c2.8,1.8,5.1,4.3,6.9,7.5c1.7,3.2,2.6,7.3,2.6,12.2v35.2c0,1.5,0.3,2,2,2c0.6,0,1.1-0.1,1.5-0.3l4.1-1.7
				v13.7l-2.4,0.4c-1.1,0.2-2,0.3-2.8,0.4c-0.8,0.1-1.9,0.1-3.2,0.1c-2.6,0-4.7-0.3-6.3-1.1c-1.8-0.8-3.2-1.9-4.2-3.4
				c-0.6-0.9-1.1-1.9-1.5-3c-0.2,0.2-0.4,0.5-0.6,0.7c-1.8,1.9-3.8,3.5-5.9,4.7c-2.2,1.3-4.6,2.2-7.3,2.9
				C306.1,131.3,302.9,131.6,299.3,131.6z M318.2,90.4c-1.3,0.2-2.9,0.4-4.6,0.6c-4.5,0.5-9,1-13.4,1.6c-4.2,0.5-8,1.4-11.2,2.7
				c-3.1,1.2-5.5,2.9-7.3,5.1c-1.7,2.1-2.6,5.1-2.6,9c0,2.9,0.5,5.4,1.5,7.4s2.4,3.7,4.1,5c1.8,1.3,3.9,2.3,6.3,3
				c5.3,1.4,12.1,1.2,16.4,0.2c2.2-0.5,4.1-1.3,5.8-2.3c1-0.6,1.9-1.2,2.8-2c-1.8,1.1-3.8,2-5.9,2.7c-5.3,1.7-11.3,2.3-16.8,0.5
				c-2.2-0.7-4.2-1.8-5.9-3.1c-1.7-1.4-3.1-3.1-4.2-5c-1.1-2-1.6-4.3-1.6-6.8c0-4.1,1.3-7.4,4-9.7c2.3-2,5.3-3.6,8.8-4.6
				c3.3-1,6.9-1.7,10.9-2.2c3.8-0.5,7.4-1,10.9-1.6C316.9,90.7,317.5,90.6,318.2,90.4z M324.2,112.4h3.3l0.3,2.9
				c0,1.5,0.1,3,0.3,4.2c0.2,1,0.5,1.8,0.9,2.5c0.4,0.6,1,1,1.8,1.4c0.6,0.3,1.8,0.6,4,0.6c1,0,1.9,0,2.6-0.1l0,0V123
				c-4.8-0.1-7.6-3-7.6-7.8V80c0-3.9-0.6-7.1-1.9-9.5s-2.9-4.1-4.9-5.4c-2.1-1.3-4.5-2.3-7.1-2.7c-6.6-1.2-13.5-1-18.9,0.4
				c-2.9,0.8-5.5,1.9-7.7,3.5c-2.1,1.5-3.7,3.5-4.9,5.9c-0.9,1.7-1.5,3.6-1.9,5.8h2.5c0.7-4.9,2.8-8.7,6.3-11.2
				c3.9-2.8,8.9-4.2,14.8-4.2c2.6,0,5.2,0.2,7.5,0.6c2.6,0.5,4.9,1.3,6.8,2.5c2.1,1.3,3.7,3.1,4.9,5.3c1.2,2.2,1.8,4.9,1.8,8.1
				c0,2.2-0.3,4-1,5.5c-0.5,1.2-1.3,2.3-2.2,3.1h3.2v13.4c0,3.7-0.8,7.1-2.2,10C324.6,111.7,324.4,112.1,324.2,112.4z M321.2,95.6
				c-1.5,0.4-2.9,0.7-4,0.9c-3.6,0.6-7.3,1.1-11.1,1.6c-3.6,0.4-6.9,1.1-9.9,2c-2.7,0.8-5,2-6.6,3.4c-1.4,1.2-2,2.9-2,5.3
				c0,1.6,0.3,2.9,0.9,4.1c0.7,1.2,1.5,2.3,2.7,3.2c1.2,0.9,2.5,1.6,4,2.1c4.4,1.4,9.1,0.8,13.2-0.5c2.6-0.8,4.9-2,6.8-3.6
				c1.9-1.5,3.4-3.4,4.5-5.6s1.6-4.6,1.6-7.4v-5.5H321.2z"/>
		</g>
		<g>
			<path class="st0" d="M357.8,60.6V72h0.3c1.6-4,4.5-7.3,8.6-9.7c4.1-2.4,8.6-3.7,13.5-3.7c4.8,0,8.9,0.6,12.1,1.8
				c3.3,1.2,5.9,2.9,7.8,5.1c2,2.2,3.4,4.9,4.2,8c0.8,3.2,1.2,6.7,1.2,10.7v42.7h-8.4V85.5c0-2.8-0.3-5.5-0.8-7.9s-1.5-4.6-2.8-6.4
				s-3.2-3.2-5.4-4.2c-2.3-1-5.1-1.5-8.5-1.5s-6.4,0.6-9,1.7c-2.6,1.2-4.9,2.7-6.7,4.8c-1.8,2-3.3,4.4-4.3,7.2c-1,2.8-1.6,5.8-1.7,9
				v38.7h-8.4V60.6H357.8z"/>
			<path class="st0" d="M408.4,129.8h-14.3V85.5c0-2.6-0.2-5-0.7-7.3c-0.4-2-1.2-3.8-2.3-5.2c-1.1-1.4-2.5-2.5-4.3-3.3
				c-3.8-1.7-10.7-1.8-15.2,0.2c-2.3,1-4.2,2.3-5.7,4c-1.6,1.7-2.8,3.8-3.7,6.2c-0.9,2.5-1.4,5.2-1.5,8.1v41.5h-14.3v-72h14.3v5.5
				c1.3-1.2,2.8-2.3,4.4-3.3c4.5-2.7,9.6-4.1,15-4.1c5.2,0,9.6,0.7,13.1,2c3.7,1.4,6.7,3.3,9,5.9c2.3,2.5,3.9,5.7,4.8,9.3
				c0.9,3.4,1.3,7.2,1.3,11.4v45.4H408.4z M400,124h2.6V84.2c0-3.7-0.4-7-1.1-9.9c-0.7-2.7-1.9-5-3.5-6.8s-3.9-3.3-6.7-4.3
				c-2.9-1.1-6.7-1.6-11.1-1.6s-8.4,1.1-12.1,3.3c-0.8,0.5-1.6,1-2.3,1.6c1.1-0.7,2.2-1.3,3.5-1.9c6-2.6,14.6-2.6,19.9-0.2
				c2.7,1.2,4.9,3,6.6,5.2c1.6,2.1,2.7,4.6,3.3,7.5c0.6,2.7,0.9,5.5,0.9,8.5L400,124L400,124z M352.3,124h2.6V88.2
				c0.1-3.6,0.7-7,1.9-10.1c0.4-1.1,0.9-2.2,1.4-3.2h-3l-0.3-2.9v-8.5h-2.6V124z"/>
		</g>
		<g>
			<path class="st1" d="M74.7,10.6V13H56.4v10.7h17.2v2.4H56.4v11.7H75v2.4H53.4V10.6H74.7z"/>
			<path class="st1" d="M83.3,34.2c0.5,1,1.2,1.8,2.1,2.4c0.9,0.6,2,1,3.2,1.3s2.6,0.4,4,0.4c0.8,0,1.7-0.1,2.6-0.3s1.8-0.6,2.7-1.1
				c0.8-0.5,1.5-1.1,2-1.9c0.5-0.8,0.8-1.7,0.8-2.8c0-0.8-0.2-1.5-0.6-2.1s-0.9-1.1-1.5-1.5s-1.3-0.7-2-1c-0.8-0.3-1.5-0.5-2.2-0.6
				l-6.9-1.6c-0.9-0.2-1.8-0.5-2.6-0.8c-0.8-0.3-1.6-0.8-2.2-1.3c-0.6-0.6-1.1-1.2-1.5-2s-0.6-1.8-0.6-2.9c0-0.7,0.1-1.5,0.4-2.5
				s0.8-1.9,1.6-2.7c0.8-0.9,1.9-1.6,3.3-2.2c1.4-0.6,3.1-0.9,5.3-0.9c1.5,0,3,0.2,4.4,0.6c1.4,0.4,2.6,1,3.6,1.7
				c1,0.8,1.9,1.7,2.5,2.9c0.6,1.1,0.9,2.5,0.9,4h-2.9c-0.1-1.1-0.3-2.1-0.8-3c-0.5-0.8-1.1-1.5-1.9-2.1s-1.6-1-2.6-1.3
				s-2-0.4-3.1-0.4c-1,0-2,0.1-2.9,0.3s-1.8,0.5-2.5,1c-0.7,0.4-1.3,1.1-1.7,1.8c-0.4,0.7-0.6,1.7-0.6,2.8c0,0.7,0.1,1.3,0.4,1.8
				c0.2,0.5,0.6,0.9,1,1.3s0.9,0.6,1.5,0.9c0.6,0.2,1.2,0.4,1.8,0.5l7.5,1.8c1.1,0.3,2.1,0.6,3.1,1s1.8,0.9,2.5,1.5s1.3,1.3,1.7,2.2
				c0.4,0.8,0.6,1.9,0.6,3.1c0,0.3,0,0.8-0.1,1.3c-0.1,0.6-0.2,1.1-0.5,1.8c-0.3,0.6-0.7,1.3-1.2,1.9c-0.5,0.6-1.2,1.2-2.1,1.7
				s-2,0.9-3.3,1.2s-2.8,0.5-4.7,0.5c-1.8,0-3.5-0.2-5-0.6c-1.5-0.4-2.9-1-4-1.8s-1.9-1.9-2.5-3.2s-0.8-2.8-0.8-4.7h2.9
				C82.5,31.9,82.8,33.2,83.3,34.2z"/>
			<path class="st1" d="M131.6,10.6V13h-10.7v27.1H118V13h-10.7v-2.4H131.6z"/>
			<path class="st1" d="M139.3,10.6v18.3c0,1.7,0.2,3.2,0.6,4.4c0.4,1.2,1,2.2,1.8,2.9c0.8,0.8,1.7,1.3,2.8,1.7
				c1.1,0.3,2.4,0.5,3.8,0.5c1.4,0,2.7-0.2,3.8-0.5s2.1-0.9,2.8-1.7c0.8-0.8,1.4-1.7,1.8-2.9c0.4-1.2,0.6-2.7,0.6-4.4V10.6h2.9v18.9
				c0,1.5-0.2,3-0.7,4.3c-0.4,1.4-1.2,2.6-2.1,3.6c-1,1-2.2,1.8-3.7,2.4c-1.5,0.6-3.3,0.9-5.5,0.9c-2.1,0-3.9-0.3-5.5-0.9
				c-1.5-0.6-2.8-1.4-3.7-2.4c-1-1-1.7-2.2-2.1-3.6c-0.4-1.4-0.7-2.8-0.7-4.3V10.6H139.3z"/>
			<path class="st1" d="M179,10.6c4.7,0.1,8.2,1.4,10.6,3.8c2.4,2.4,3.6,6.1,3.6,11s-1.2,8.6-3.6,11c-2.4,2.4-5.9,3.7-10.6,3.8
				h-10.7V10.6H179z M177.6,37.7c2.2,0,4.1-0.2,5.7-0.7c1.6-0.5,2.9-1.2,3.9-2.2s1.8-2.3,2.3-3.8c0.5-1.6,0.7-3.5,0.7-5.7
				s-0.2-4.1-0.7-5.7s-1.3-2.9-2.3-3.8c-1-1-2.3-1.7-3.9-2.2c-1.6-0.5-3.5-0.7-5.7-0.7h-6.3v24.7h6.3V37.7z"/>
			<path class="st1" d="M203.2,10.6v29.5h-2.9V10.6H203.2z"/>
			<path class="st1" d="M211.1,19.5c0.6-1.8,1.5-3.5,2.7-4.9s2.7-2.5,4.6-3.4c1.8-0.8,3.9-1.3,6.4-1.3s4.5,0.4,6.3,1.3
				c1.8,0.8,3.3,2,4.5,3.4s2.1,3,2.7,4.9c0.6,1.8,0.9,3.8,0.9,5.8s-0.3,4-0.9,5.8c-0.6,1.8-1.5,3.5-2.7,4.9s-2.7,2.5-4.5,3.4
				c-1.8,0.8-3.9,1.3-6.3,1.3s-4.5-0.4-6.4-1.3c-1.8-0.8-3.3-2-4.6-3.4c-1.2-1.4-2.1-3-2.7-4.9c-0.6-1.8-0.9-3.8-0.9-5.8
				C210.2,23.3,210.5,21.4,211.1,19.5z M213.8,30.1c0.4,1.6,1.1,3,2.1,4.2c0.9,1.2,2.1,2.2,3.6,3c1.5,0.7,3.2,1.1,5.3,1.1
				c2,0,3.8-0.4,5.2-1.1c1.5-0.7,2.6-1.7,3.6-3c0.9-1.2,1.6-2.6,2.1-4.2c0.4-1.6,0.7-3.1,0.7-4.7s-0.2-3.2-0.7-4.8
				c-0.4-1.6-1.1-2.9-2.1-4.2c-0.9-1.2-2.1-2.2-3.6-3c-1.5-0.7-3.2-1.1-5.2-1.1s-3.8,0.4-5.3,1.1c-1.5,0.7-2.7,1.7-3.6,3
				c-0.9,1.2-1.6,2.6-2.1,4.2c-0.4,1.5-0.7,3.1-0.7,4.8C213.1,27,213.3,28.5,213.8,30.1z"/>
		</g>
	</g>
</g>
</svg>
